<?xml version="1.0" encoding="iso-8859-1"?>
<!-- Generator: Adobe Illustrator 19.0.0, SVG Export Plug-In . SVG Version: 6.00 Build 0)  -->
<svg version="1.1" id="Layer_1" xmlns="http://www.w3.org/2000/svg" xmlns:xlink="http://www.w3.org/1999/xlink" x="0px" y="0px"
	 viewBox="0 0 512 512" style="enable-background:new 0 0 512 512;" xml:space="preserve">
<ellipse style="fill:#78B86D;" cx="307.2" cy="307.2" rx="71.68" ry="51.2"/>
<path style="fill:#B4DE7C;" d="M396.112,204.8H384h-42.667H307.2h-88.912c-8.859,31.205-33.483,55.827-64.688,64.688v47.952v15.36
	v12.11c31.208,8.859,55.84,33.48,64.7,64.69h88.9h88.912c8.859-31.206,33.483-55.828,64.688-64.689V269.49
	C429.595,260.627,404.972,236.005,396.112,204.8z M307.2,358.4c-39.586,0-71.68-22.924-71.68-51.2c0-28.276,32.094-51.2,71.68-51.2
	c39.584,0,71.68,22.924,71.68,51.2C378.88,335.476,346.784,358.4,307.2,358.4z"/>
<path style="fill:#78B86D;" d="M486.4,153.6h-68.267H409.6H384h-25.6h-51.2H196.267H128c-14.138,0-25.6,11.462-25.6,25.6v68.267
	V307.2v25.6v25.6v8.533V435.2c0,14.136,11.462,25.6,25.6,25.6h68.267h0.034H307.2h110.933H486.4c14.138,0,25.6-11.464,25.6-25.6
	v-68.267V247.467V179.2C512,165.062,500.538,153.6,486.4,153.6z M460.8,344.91c-31.205,8.861-55.828,33.483-64.688,64.69H307.2
	h-88.9c-8.859-31.21-33.492-55.83-64.7-64.689V332.8v-15.36v-47.952c31.205-8.861,55.828-33.483,64.688-64.688H307.2h34.133H384
	h12.112c8.859,31.205,33.483,55.827,64.688,64.688V344.91z"/>
<path style="fill:#598951;" d="M102.4,307.2v-59.733V179.2c0-14.138,11.462-25.6,25.6-25.6h68.267H307.2h51.2H384h25.6V76.8
	c0-14.138-11.462-25.6-25.6-25.6H25.6C11.462,51.2,0,62.662,0,76.8v256c0,14.136,11.462,25.6,25.6,25.6h76.8v-25.6V307.2z"/>
<path style="fill:#A8DA64;" d="M235.52,307.2c0-28.276,32.094-51.2,71.68-51.2v-51.2h-88.912
	c-8.859,31.205-33.483,55.827-64.688,64.688v47.952v15.36v12.11c31.208,8.859,55.84,33.48,64.7,64.69h88.9v-51.2
	C267.614,358.4,235.52,335.476,235.52,307.2z"/>
<g>
	<path style="fill:#69A15F;" d="M102.4,435.2c0,14.136,11.462,25.6,25.6,25.6h68.267h0.034H307.2v-51.2h-88.9
		c-8.859-31.21-33.492-55.83-64.7-64.689V332.8v-15.36v-47.952c31.205-8.861,55.828-33.483,64.688-64.688H307.2v-51.2H196.267H128
		c-14.138,0-25.6,11.462-25.6,25.6v68.267V307.2v25.6v25.6v8.533V435.2z"/>
	<path style="fill:#69A15F;" d="M235.52,307.2c0,28.276,32.094,51.2,71.68,51.2V256C267.614,256,235.52,278.924,235.52,307.2z"/>
</g>
<g>
</g>
<g>
</g>
<g>
</g>
<g>
</g>
<g>
</g>
<g>
</g>
<g>
</g>
<g>
</g>
<g>
</g>
<g>
</g>
<g>
</g>
<g>
</g>
<g>
</g>
<g>
</g>
<g>
</g>
</svg>
